<svg t="1634371588983" class="icon" viewBox="0 0 1024 1024" version="1.1" xmlns="http://www.w3.org/2000/svg" p-id="5315" width="200" height="200"><path d="M896 223.744v315.392c0 17.92-14.336 31.744-31.744 31.744s-31.744-14.336-31.744-31.744V223.744c0-17.92-14.336-31.744-31.744-31.744H224.256c-17.408 0-31.744 14.336-31.744 31.744v640c0 17.408 14.336 31.744 31.744 31.744H471.04c17.92 0 31.744 14.336 31.744 31.744 0 17.408-14.336 31.744-31.744 31.744H224.256c-52.736 0-96.256-43.008-96.256-96.256v-640C128 171.008 171.008 128 224.256 128h576c52.736 0 95.744 43.008 95.744 95.744z m-284.16 291.328c0 17.92-16.384 31.744-36.864 31.744h-281.6c-20.48 0-36.864-14.336-36.864-31.744 0-17.408 16.384-31.744 36.864-31.744h281.6c20.48 0 36.864 14.336 36.864 31.744z m-150.016 184.32c0 17.408-16.384 31.744-36.864 31.744H292.864c-20.48 0-36.864-14.336-36.864-31.744 0-17.92 16.384-31.744 36.864-31.744H424.96c20.48 0 36.864 14.336 36.864 31.744z m242.176-360.96c0 17.92-14.336 31.744-31.744 31.744h-384c-17.92 0-31.744-14.336-31.744-31.744s14.336-31.744 31.744-31.744h384c17.408 0 31.744 14.336 31.744 31.744z" p-id="5316"></path><path d="M889.344 737.28c-2.048-7.68-9.216-12.8-17.408-12.288-10.24 0.512-19.968-4.608-25.088-13.312-5.12-8.704-4.608-19.968 1.024-28.672 4.608-6.656 3.584-15.36-2.048-21.504-23.04-24.064-52.224-40.96-84.48-48.64-7.68-2.048-15.872 2.048-19.456 9.216-4.608 9.216-13.824 14.848-24.064 14.848s-19.456-5.632-24.064-14.848c-3.584-7.168-11.776-10.752-19.456-9.216-32.256 8.192-61.44 25.088-84.48 48.64-5.632 5.632-6.656 14.848-2.048 21.504 5.632 8.704 6.144 19.456 1.024 28.16-5.12 8.704-14.848 14.336-25.088 13.312-8.192-0.512-15.36 4.608-17.408 12.288-4.608 15.872-6.656 32.256-6.656 48.64s2.048 33.28 6.656 48.64c2.048 7.68 9.728 12.8 17.408 12.288 10.24-0.512 19.968 4.608 25.088 13.312 5.12 8.704 4.608 19.968-1.024 28.16-4.608 6.656-3.584 15.872 2.048 21.504 23.04 24.064 52.224 40.96 84.48 48.64 7.68 2.048 15.872-2.048 19.456-9.216 4.608-9.216 13.824-14.848 24.064-14.848s19.456 5.632 24.064 14.848c3.072 6.144 9.216 9.728 15.36 9.728 1.536 0 2.56 0 4.096-0.512 32.256-8.192 61.44-25.088 84.48-48.64 5.632-5.632 6.144-14.848 2.048-21.504-5.632-8.704-6.144-19.456-1.024-28.16 5.12-8.704 14.848-14.336 25.088-13.312 8.192 0.512 15.36-4.608 17.408-12.288 4.608-15.872 6.656-32.256 6.656-48.64 0-15.872-2.048-32.256-6.656-48.128z m-45.056 74.24c-15.872 3.072-29.696 12.288-37.888 26.624-8.192 13.824-9.728 30.72-4.096 46.08-12.8 11.264-27.136 19.456-43.008 25.088-10.24-12.288-25.6-19.456-41.472-19.456h-0.512c-16.384 0-31.232 7.168-41.472 19.456-15.872-5.632-30.72-13.824-43.52-25.088 5.632-15.36 4.096-31.744-4.096-46.08s-22.016-23.552-37.888-26.624c-3.072-16.384-3.072-33.28 0-50.176 15.872-3.072 29.696-12.288 37.888-26.624 8.192-13.824 9.728-30.72 4.096-46.08 12.8-11.264 27.136-19.456 43.008-25.088 10.24 12.288 25.6 19.456 41.984 19.456 16.384 0 31.232-7.168 41.984-19.456 15.872 5.632 30.72 13.824 43.52 25.088-5.632 15.36-4.096 31.744 4.096 46.08s22.016 23.552 37.888 26.624c3.072 16.384 3.072 33.28-0.512 50.176z" p-id="5317"></path><path d="M717.312 708.096c-43.008 0-78.336 35.328-78.336 78.336s35.328 78.336 78.336 78.336 78.336-35.328 78.336-78.336-34.816-78.336-78.336-78.336z m0 114.176c-19.968 0-35.84-16.384-35.84-35.84 0-19.968 16.384-35.84 35.84-35.84 19.968 0 35.84 16.384 35.84 35.84 0.512 19.968-15.872 35.84-35.84 35.84z" p-id="5318"></path></svg>
