<svg t="1636447769628" class="icon" viewBox="0 0 1024 1024" version="1.1" xmlns="http://www.w3.org/2000/svg" p-id="4278" width="200" height="200"><path d="M724.884 313.943c-15.446 3.991-31.316-4.867-35.463-19.814l-12.27-47.21C651.19 153.165 562.67 97.45 462.198 123.483c-101.49 26.33-145.786 118.202-120.285 210.384l19.554 84.837c4.11 14.912-5.047 30.251-20.454 34.278-15.446 3.99-31.306-4.857-35.45-19.815l-19.518-84.79C252.253 226.357 314.943 103.703 447.24 69.414c131.775-34.157 251.42 38.955 285.768 163.043l12.318 47.198c4.121 14.959-5 30.296-20.442 34.287z m44.958 644.734H249.281c-63.78 0-115.692-50.219-115.692-111.947V510.813c0-61.742 51.911-111.961 115.692-111.961h520.561c63.816 0 115.692 50.219 115.692 111.961V846.73c-0.001 61.728-51.876 111.947-115.692 111.947z m57.87-447.864c0-30.865-25.962-55.986-57.871-55.986H249.28c-31.873 0-57.822 25.121-57.822 55.986V846.73c0 30.84 25.95 55.972 57.822 55.972h520.561c31.909 0 57.871-25.133 57.871-55.972V510.813h-0.001zM509.584 678.735c-31.94 0-57.856-25.038-57.856-55.974 0-30.912 25.915-55.973 57.856-55.973 31.957 0 57.823 25.06 57.823 55.973 0 30.936-25.867 55.974-57.823 55.974z m0 111.995c-15.965 0-28.933-12.53-28.933-28.022V650.76c0-15.443 12.968-28 28.933-28 15.966 0 28.925 12.558 28.925 28v111.948c0 15.493-12.96 28.022-28.925 28.022z" p-id="4279"></path></svg>
