<svg t="1634371442802" class="icon" viewBox="0 0 1024 1024" version="1.1" xmlns="http://www.w3.org/2000/svg" p-id="4348" width="200" height="200"><path d="M886.923636 54.225455H151.738182a103.330909 103.330909 0 0 0-103.330909 103.330909v527.36a103.563636 103.563636 0 0 0 103.563636 103.563636h332.567273v111.476364H236.218182a34.909091 34.909091 0 1 0 0 69.818181h349.090909a34.909091 34.909091 0 0 0 0-69.818181h-30.952727v-116.363637a38.4 38.4 0 0 0 0-7.447272 34.676364 34.676364 0 0 0 9.541818-23.272728 34.909091 34.909091 0 0 0-34.909091-34.909091H151.970909a33.745455 33.745455 0 0 1-33.745454-33.745454V157.556364a33.28 33.28 0 0 1 33.512727-33.512728h735.185454a33.745455 33.745455 0 0 1 33.745455 33.745455v356.770909a34.909091 34.909091 0 0 0 69.818182 0V157.789091a103.563636 103.563636 0 0 0-103.563637-103.563636z" p-id="4349"></path><path d="M462.661818 239.476364a34.909091 34.909091 0 0 0-34.909091-34.909091h-191.534545a34.909091 34.909091 0 1 0 0 69.818182h191.534545a34.909091 34.909091 0 0 0 34.909091-34.909091zM236.218182 327.447273a34.909091 34.909091 0 1 0 0 69.818182h131.956363a34.909091 34.909091 0 0 0 0-69.818182zM901.818182 651.636364a28.625455 28.625455 0 0 0-25.134546-14.429091h-148.712727a29.090909 29.090909 0 0 0-25.367273 14.429091L628.363636 779.403636a28.392727 28.392727 0 0 0 0 29.090909l74.24 128.93091a29.090909 29.090909 0 0 0 25.367273 14.42909h148.712727a28.625455 28.625455 0 0 0 25.134546-14.42909L977.454545 808.494545a28.392727 28.392727 0 0 0 0-29.090909zM861.090909 893.672727h-116.363636l-57.716364-99.607272L744.727273 694.225455h116.363636l57.716364 99.84z" p-id="4350"></path><path d="M802.443636 721.454545a72.843636 72.843636 0 1 0 72.610909 72.843637A72.843636 72.843636 0 0 0 802.443636 721.454545z m0 87.272728a14.661818 14.661818 0 1 1 14.429091-14.429091 14.661818 14.661818 0 0 1-14.429091 14.196363z" p-id="4351"></path></svg>
