<svg t="1646706774683" class="icon" viewBox="0 0 1024 1024" version="1.1" xmlns="http://www.w3.org/2000/svg" p-id="2184" width="200" height="200"><path d="M511.761058 3.069919C231.541959 3.069919 4.352633 230.236731 4.352633 510.500856c0 280.220123 227.189326 507.409448 507.408425 507.409448 280.263102 0 507.409448-227.189326 507.409448-507.409448C1019.170506 230.236731 792.02416 3.069919 511.761058 3.069919zM511.761058 939.765527c-237.065254 0-429.266717-192.20044-429.266717-429.265694 0-237.103116 192.201463-429.287183 429.266717-429.287183 237.102093 0 429.26774 192.184067 429.26774 429.287183C941.028798 747.565087 748.863151 939.765527 511.761058 939.765527z" p-id="2185"></path><path d="M464.371748 818.403458l0-75.824943 78.840626 0 0 75.824943L464.371748 818.403458 464.371748 818.403458zM537.181007 639.489626c-2.070148-42.415019 18.145266-77.785597 60.607356-106.128109 76.859505-52.569286 113.197108-110.181425 109.187795-172.880419-8.058536-99.015108-65.759703-151.584394-172.83437-157.684322-119.364575-4.052293-192.084807 49.595558-218.380706 160.767544l63.73458 21.186532c16.121166-86.85823 65.672722-128.327714 148.567687-124.297934 64.702628 6.055926 101.085256 38.386262 109.189841 96.988961 6.077416 48.539506-22.288632 94.037746-84.966137 136.520303-54.57292 38.385239-80.823793 85.911672-78.841649 142.509714 0 10.131755 0 20.218484 0 30.30419l63.735603 0C537.181007 660.72016 537.181007 651.64548 537.181007 639.489626L537.181007 639.489626 537.181007 639.489626z" p-id="2186"></path></svg>
